<mxfile host="app.diagrams.net" modified="2022-11-02T18:47:48.101Z" agent="5.0 (Windows NT 10.0; Win64; x64) AppleWebKit/537.36 (KHTML, like Gecko) Chrome/107.0.0.0 Safari/537.36" etag="DIqnrr3oVkRU3t9u0DBo" version="20.5.1" type="github">
  <diagram id="R2lEEEUBdFMjLlhIrx00" name="Page-1">
    <mxGraphModel dx="1447" dy="803" grid="1" gridSize="10" guides="1" tooltips="1" connect="1" arrows="1" fold="1" page="1" pageScale="1" pageWidth="850" pageHeight="1100" math="0" shadow="0" extFonts="Permanent Marker^https://fonts.googleapis.com/css?family=Permanent+Marker">
      <root>
        <mxCell id="0" />
        <mxCell id="1" parent="0" />
        <mxCell id="xv_gtzmwuyqn3bFnvwPB-1" value="" style="rounded=0;whiteSpace=wrap;html=1;" vertex="1" parent="1">
          <mxGeometry x="160" y="120" width="120" height="60" as="geometry" />
        </mxCell>
        <mxCell id="xv_gtzmwuyqn3bFnvwPB-2" value="" style="ellipse;whiteSpace=wrap;html=1;" vertex="1" parent="1">
          <mxGeometry x="50" y="40" width="100" height="60" as="geometry" />
        </mxCell>
        <mxCell id="xv_gtzmwuyqn3bFnvwPB-3" value="" style="ellipse;whiteSpace=wrap;html=1;" vertex="1" parent="1">
          <mxGeometry x="20" y="120" width="100" height="60" as="geometry" />
        </mxCell>
        <mxCell id="xv_gtzmwuyqn3bFnvwPB-4" value="" style="ellipse;whiteSpace=wrap;html=1;" vertex="1" parent="1">
          <mxGeometry x="170" y="10" width="100" height="60" as="geometry" />
        </mxCell>
        <mxCell id="xv_gtzmwuyqn3bFnvwPB-5" value="" style="ellipse;whiteSpace=wrap;html=1;" vertex="1" parent="1">
          <mxGeometry x="290" y="40" width="100" height="60" as="geometry" />
        </mxCell>
        <mxCell id="xv_gtzmwuyqn3bFnvwPB-6" value="" style="ellipse;whiteSpace=wrap;html=1;" vertex="1" parent="1">
          <mxGeometry x="320" y="120" width="100" height="60" as="geometry" />
        </mxCell>
        <mxCell id="xv_gtzmwuyqn3bFnvwPB-7" value="" style="ellipse;whiteSpace=wrap;html=1;" vertex="1" parent="1">
          <mxGeometry x="50" y="200" width="100" height="60" as="geometry" />
        </mxCell>
        <mxCell id="xv_gtzmwuyqn3bFnvwPB-8" value="" style="ellipse;whiteSpace=wrap;html=1;" vertex="1" parent="1">
          <mxGeometry x="290" y="200" width="100" height="60" as="geometry" />
        </mxCell>
        <mxCell id="xv_gtzmwuyqn3bFnvwPB-9" value="" style="rhombus;whiteSpace=wrap;html=1;" vertex="1" parent="1">
          <mxGeometry x="180" y="250" width="80" height="80" as="geometry" />
        </mxCell>
        <mxCell id="xv_gtzmwuyqn3bFnvwPB-10" value="" style="rounded=0;whiteSpace=wrap;html=1;" vertex="1" parent="1">
          <mxGeometry x="157.5" y="410" width="120" height="60" as="geometry" />
        </mxCell>
        <mxCell id="xv_gtzmwuyqn3bFnvwPB-11" value="" style="ellipse;whiteSpace=wrap;html=1;" vertex="1" parent="1">
          <mxGeometry y="450" width="100" height="60" as="geometry" />
        </mxCell>
        <mxCell id="xv_gtzmwuyqn3bFnvwPB-12" value="" style="ellipse;whiteSpace=wrap;html=1;" vertex="1" parent="1">
          <mxGeometry y="380" width="100" height="60" as="geometry" />
        </mxCell>
        <mxCell id="xv_gtzmwuyqn3bFnvwPB-13" value="" style="ellipse;whiteSpace=wrap;html=1;" vertex="1" parent="1">
          <mxGeometry x="340" y="470" width="100" height="60" as="geometry" />
        </mxCell>
        <mxCell id="xv_gtzmwuyqn3bFnvwPB-14" value="" style="ellipse;whiteSpace=wrap;html=1;" vertex="1" parent="1">
          <mxGeometry x="47.5" y="520" width="100" height="60" as="geometry" />
        </mxCell>
        <mxCell id="xv_gtzmwuyqn3bFnvwPB-15" value="" style="ellipse;whiteSpace=wrap;html=1;" vertex="1" parent="1">
          <mxGeometry x="47.5" y="310" width="100" height="60" as="geometry" />
        </mxCell>
        <mxCell id="xv_gtzmwuyqn3bFnvwPB-16" value="" style="ellipse;whiteSpace=wrap;html=1;" vertex="1" parent="1">
          <mxGeometry x="340" y="350" width="100" height="60" as="geometry" />
        </mxCell>
        <mxCell id="xv_gtzmwuyqn3bFnvwPB-17" value="" style="rhombus;whiteSpace=wrap;html=1;" vertex="1" parent="1">
          <mxGeometry x="180" y="530" width="80" height="80" as="geometry" />
        </mxCell>
        <mxCell id="xv_gtzmwuyqn3bFnvwPB-18" value="" style="rounded=0;whiteSpace=wrap;html=1;" vertex="1" parent="1">
          <mxGeometry x="160" y="670" width="120" height="60" as="geometry" />
        </mxCell>
        <mxCell id="xv_gtzmwuyqn3bFnvwPB-19" value="" style="ellipse;whiteSpace=wrap;html=1;" vertex="1" parent="1">
          <mxGeometry x="20" y="610" width="100" height="60" as="geometry" />
        </mxCell>
        <mxCell id="xv_gtzmwuyqn3bFnvwPB-20" value="" style="ellipse;whiteSpace=wrap;html=1;" vertex="1" parent="1">
          <mxGeometry x="20" y="730" width="100" height="60" as="geometry" />
        </mxCell>
        <mxCell id="xv_gtzmwuyqn3bFnvwPB-21" value="" style="ellipse;whiteSpace=wrap;html=1;" vertex="1" parent="1">
          <mxGeometry x="320" y="610" width="100" height="60" as="geometry" />
        </mxCell>
        <mxCell id="xv_gtzmwuyqn3bFnvwPB-22" value="" style="ellipse;whiteSpace=wrap;html=1;" vertex="1" parent="1">
          <mxGeometry x="320" y="720" width="100" height="60" as="geometry" />
        </mxCell>
        <mxCell id="xv_gtzmwuyqn3bFnvwPB-23" value="" style="rhombus;whiteSpace=wrap;html=1;" vertex="1" parent="1">
          <mxGeometry x="430" y="660" width="80" height="80" as="geometry" />
        </mxCell>
        <mxCell id="xv_gtzmwuyqn3bFnvwPB-24" value="" style="rounded=0;whiteSpace=wrap;html=1;" vertex="1" parent="1">
          <mxGeometry x="640" y="670" width="120" height="60" as="geometry" />
        </mxCell>
        <mxCell id="xv_gtzmwuyqn3bFnvwPB-25" value="" style="ellipse;whiteSpace=wrap;html=1;" vertex="1" parent="1">
          <mxGeometry x="520" y="610" width="100" height="60" as="geometry" />
        </mxCell>
        <mxCell id="xv_gtzmwuyqn3bFnvwPB-26" value="" style="ellipse;whiteSpace=wrap;html=1;" vertex="1" parent="1">
          <mxGeometry x="520" y="720" width="100" height="60" as="geometry" />
        </mxCell>
        <mxCell id="xv_gtzmwuyqn3bFnvwPB-27" value="" style="ellipse;whiteSpace=wrap;html=1;" vertex="1" parent="1">
          <mxGeometry x="650" y="580" width="100" height="60" as="geometry" />
        </mxCell>
        <mxCell id="xv_gtzmwuyqn3bFnvwPB-28" value="" style="ellipse;whiteSpace=wrap;html=1;" vertex="1" parent="1">
          <mxGeometry x="650" y="760" width="100" height="60" as="geometry" />
        </mxCell>
        <mxCell id="xv_gtzmwuyqn3bFnvwPB-29" value="" style="ellipse;whiteSpace=wrap;html=1;" vertex="1" parent="1">
          <mxGeometry x="800" y="670" width="100" height="60" as="geometry" />
        </mxCell>
        <mxCell id="xv_gtzmwuyqn3bFnvwPB-30" value="" style="rhombus;whiteSpace=wrap;html=1;" vertex="1" parent="1">
          <mxGeometry x="470" y="110" width="80" height="80" as="geometry" />
        </mxCell>
        <mxCell id="xv_gtzmwuyqn3bFnvwPB-31" value="" style="rhombus;whiteSpace=wrap;html=1;" vertex="1" parent="1">
          <mxGeometry x="480" y="400" width="80" height="80" as="geometry" />
        </mxCell>
        <mxCell id="xv_gtzmwuyqn3bFnvwPB-32" value="" style="endArrow=none;html=1;rounded=0;exitX=1;exitY=0;exitDx=0;exitDy=0;entryX=0;entryY=0.5;entryDx=0;entryDy=0;" edge="1" parent="1" source="xv_gtzmwuyqn3bFnvwPB-10" target="xv_gtzmwuyqn3bFnvwPB-30">
          <mxGeometry width="50" height="50" relative="1" as="geometry">
            <mxPoint x="420" y="490" as="sourcePoint" />
            <mxPoint x="470" y="440" as="targetPoint" />
          </mxGeometry>
        </mxCell>
        <mxCell id="xv_gtzmwuyqn3bFnvwPB-33" value="" style="endArrow=none;html=1;rounded=0;exitX=1;exitY=0.5;exitDx=0;exitDy=0;entryX=0;entryY=0.5;entryDx=0;entryDy=0;" edge="1" parent="1" source="xv_gtzmwuyqn3bFnvwPB-10" target="xv_gtzmwuyqn3bFnvwPB-31">
          <mxGeometry width="50" height="50" relative="1" as="geometry">
            <mxPoint x="660" y="340" as="sourcePoint" />
            <mxPoint x="710" y="290" as="targetPoint" />
          </mxGeometry>
        </mxCell>
        <mxCell id="xv_gtzmwuyqn3bFnvwPB-34" value="" style="rounded=0;whiteSpace=wrap;html=1;" vertex="1" parent="1">
          <mxGeometry x="640" y="120" width="120" height="60" as="geometry" />
        </mxCell>
        <mxCell id="xv_gtzmwuyqn3bFnvwPB-35" value="" style="rounded=0;whiteSpace=wrap;html=1;" vertex="1" parent="1">
          <mxGeometry x="640" y="410" width="120" height="60" as="geometry" />
        </mxCell>
        <mxCell id="xv_gtzmwuyqn3bFnvwPB-36" value="" style="ellipse;whiteSpace=wrap;html=1;" vertex="1" parent="1">
          <mxGeometry x="540" y="40" width="100" height="60" as="geometry" />
        </mxCell>
        <mxCell id="xv_gtzmwuyqn3bFnvwPB-37" value="&lt;span style=&quot;color: rgba(0, 0, 0, 0); font-family: monospace; font-size: 0px; text-align: start;&quot;&gt;%3CmxGraphModel%3E%3Croot%3E%3CmxCell%20id%3D%220%22%2F%3E%3CmxCell%20id%3D%221%22%20parent%3D%220%22%2F%3E%3CmxCell%20id%3D%222%22%20value%3D%22%22%20style%3D%22ellipse%3BwhiteSpace%3Dwrap%3Bhtml%3D1%3B%22%20vertex%3D%221%22%20parent%3D%221%22%3E%3CmxGeometry%20x%3D%22540%22%20y%3D%2240%22%20width%3D%22100%22%20height%3D%2260%22%20as%3D%22geometry%22%2F%3E%3C%2FmxCell%3E%3C%2Froot%3E%3C%2FmxGraphModel%3E&lt;/span&gt;" style="ellipse;whiteSpace=wrap;html=1;" vertex="1" parent="1">
          <mxGeometry x="650" y="10" width="100" height="60" as="geometry" />
        </mxCell>
        <mxCell id="xv_gtzmwuyqn3bFnvwPB-38" value="" style="ellipse;whiteSpace=wrap;html=1;" vertex="1" parent="1">
          <mxGeometry x="760" y="40" width="100" height="60" as="geometry" />
        </mxCell>
        <mxCell id="xv_gtzmwuyqn3bFnvwPB-39" value="" style="ellipse;whiteSpace=wrap;html=1;" vertex="1" parent="1">
          <mxGeometry x="550" y="200" width="100" height="60" as="geometry" />
        </mxCell>
        <mxCell id="xv_gtzmwuyqn3bFnvwPB-40" value="" style="ellipse;whiteSpace=wrap;html=1;" vertex="1" parent="1">
          <mxGeometry x="770" y="200" width="100" height="60" as="geometry" />
        </mxCell>
        <mxCell id="xv_gtzmwuyqn3bFnvwPB-43" value="&lt;span style=&quot;color: rgba(0, 0, 0, 0); font-family: monospace; font-size: 0px; text-align: start;&quot;&gt;%3CmxGraphModel%3E%3Croot%3E%3CmxCell%20id%3D%220%22%2F%3E%3CmxCell%20id%3D%221%22%20parent%3D%220%22%2F%3E%3CmxCell%20id%3D%222%22%20value%3D%22%22%20style%3D%22ellipse%3BwhiteSpace%3Dwrap%3Bhtml%3D1%3B%22%20vertex%3D%221%22%20parent%3D%221%22%3E%3CmxGeometry%20x%3D%22540%22%20y%3D%2240%22%20width%3D%22100%22%20height%3D%2260%22%20as%3D%22geometry%22%2F%3E%3C%2FmxCell%3E%3C%2Froot%3E%3C%2FmxGraphModel%3E&lt;/span&gt;" style="ellipse;whiteSpace=wrap;html=1;" vertex="1" parent="1">
          <mxGeometry x="660" y="220" width="100" height="60" as="geometry" />
        </mxCell>
        <mxCell id="xv_gtzmwuyqn3bFnvwPB-44" value="" style="ellipse;whiteSpace=wrap;html=1;" vertex="1" parent="1">
          <mxGeometry x="860" y="80" width="100" height="60" as="geometry" />
        </mxCell>
        <mxCell id="xv_gtzmwuyqn3bFnvwPB-45" value="" style="ellipse;whiteSpace=wrap;html=1;" vertex="1" parent="1">
          <mxGeometry x="860" y="150" width="100" height="60" as="geometry" />
        </mxCell>
        <mxCell id="xv_gtzmwuyqn3bFnvwPB-46" value="" style="ellipse;whiteSpace=wrap;html=1;" vertex="1" parent="1">
          <mxGeometry x="550" y="330" width="100" height="60" as="geometry" />
        </mxCell>
        <mxCell id="xv_gtzmwuyqn3bFnvwPB-47" value="&lt;span style=&quot;color: rgba(0, 0, 0, 0); font-family: monospace; font-size: 0px; text-align: start;&quot;&gt;%3CmxGraphModel%3E%3Croot%3E%3CmxCell%20id%3D%220%22%2F%3E%3CmxCell%20id%3D%221%22%20parent%3D%220%22%2F%3E%3CmxCell%20id%3D%222%22%20value%3D%22%22%20style%3D%22ellipse%3BwhiteSpace%3Dwrap%3Bhtml%3D1%3B%22%20vertex%3D%221%22%20parent%3D%221%22%3E%3CmxGeometry%20x%3D%22540%22%20y%3D%2240%22%20width%3D%22100%22%20height%3D%2260%22%20as%3D%22geometry%22%2F%3E%3C%2FmxCell%3E%3C%2Froot%3E%3C%2FmxGraphModel%3E&lt;/span&gt;" style="ellipse;whiteSpace=wrap;html=1;" vertex="1" parent="1">
          <mxGeometry x="660" y="300" width="100" height="60" as="geometry" />
        </mxCell>
        <mxCell id="xv_gtzmwuyqn3bFnvwPB-48" value="" style="ellipse;whiteSpace=wrap;html=1;" vertex="1" parent="1">
          <mxGeometry x="770" y="330" width="100" height="60" as="geometry" />
        </mxCell>
        <mxCell id="xv_gtzmwuyqn3bFnvwPB-49" value="" style="ellipse;whiteSpace=wrap;html=1;" vertex="1" parent="1">
          <mxGeometry x="870" y="370" width="100" height="60" as="geometry" />
        </mxCell>
        <mxCell id="xv_gtzmwuyqn3bFnvwPB-50" value="" style="ellipse;whiteSpace=wrap;html=1;" vertex="1" parent="1">
          <mxGeometry x="560" y="490" width="100" height="60" as="geometry" />
        </mxCell>
        <mxCell id="xv_gtzmwuyqn3bFnvwPB-51" value="" style="ellipse;whiteSpace=wrap;html=1;" vertex="1" parent="1">
          <mxGeometry x="780" y="490" width="100" height="60" as="geometry" />
        </mxCell>
        <mxCell id="xv_gtzmwuyqn3bFnvwPB-52" value="&lt;span style=&quot;color: rgba(0, 0, 0, 0); font-family: monospace; font-size: 0px; text-align: start;&quot;&gt;%3CmxGraphModel%3E%3Croot%3E%3CmxCell%20id%3D%220%22%2F%3E%3CmxCell%20id%3D%221%22%20parent%3D%220%22%2F%3E%3CmxCell%20id%3D%222%22%20value%3D%22%22%20style%3D%22ellipse%3BwhiteSpace%3Dwrap%3Bhtml%3D1%3B%22%20vertex%3D%221%22%20parent%3D%221%22%3E%3CmxGeometry%20x%3D%22540%22%20y%3D%2240%22%20width%3D%22100%22%20height%3D%2260%22%20as%3D%22geometry%22%2F%3E%3C%2FmxCell%3E%3C%2Froot%3E%3C%2FmxGraphModel%3E&lt;/span&gt;" style="ellipse;whiteSpace=wrap;html=1;" vertex="1" parent="1">
          <mxGeometry x="670" y="510" width="100" height="60" as="geometry" />
        </mxCell>
        <mxCell id="xv_gtzmwuyqn3bFnvwPB-53" value="" style="ellipse;whiteSpace=wrap;html=1;" vertex="1" parent="1">
          <mxGeometry x="870" y="440" width="100" height="60" as="geometry" />
        </mxCell>
        <mxCell id="xv_gtzmwuyqn3bFnvwPB-54" value="" style="endArrow=none;html=1;rounded=0;entryX=1;entryY=0.5;entryDx=0;entryDy=0;exitX=0;exitY=0.5;exitDx=0;exitDy=0;" edge="1" parent="1" source="xv_gtzmwuyqn3bFnvwPB-34" target="xv_gtzmwuyqn3bFnvwPB-30">
          <mxGeometry width="50" height="50" relative="1" as="geometry">
            <mxPoint x="450" y="330" as="sourcePoint" />
            <mxPoint x="500" y="280" as="targetPoint" />
          </mxGeometry>
        </mxCell>
        <mxCell id="xv_gtzmwuyqn3bFnvwPB-55" value="" style="endArrow=none;html=1;rounded=0;exitX=1;exitY=0.5;exitDx=0;exitDy=0;entryX=0;entryY=0.5;entryDx=0;entryDy=0;" edge="1" parent="1" source="xv_gtzmwuyqn3bFnvwPB-31" target="xv_gtzmwuyqn3bFnvwPB-35">
          <mxGeometry width="50" height="50" relative="1" as="geometry">
            <mxPoint x="480" y="320" as="sourcePoint" />
            <mxPoint x="530" y="270" as="targetPoint" />
          </mxGeometry>
        </mxCell>
        <mxCell id="xv_gtzmwuyqn3bFnvwPB-56" value="" style="endArrow=none;html=1;rounded=0;exitX=1;exitY=0.5;exitDx=0;exitDy=0;entryX=0;entryY=0.5;entryDx=0;entryDy=0;" edge="1" parent="1" source="xv_gtzmwuyqn3bFnvwPB-18" target="xv_gtzmwuyqn3bFnvwPB-23">
          <mxGeometry width="50" height="50" relative="1" as="geometry">
            <mxPoint x="450" y="590" as="sourcePoint" />
            <mxPoint x="500" y="540" as="targetPoint" />
          </mxGeometry>
        </mxCell>
        <mxCell id="xv_gtzmwuyqn3bFnvwPB-57" value="" style="endArrow=none;html=1;rounded=0;exitX=1;exitY=0.5;exitDx=0;exitDy=0;entryX=0;entryY=0.5;entryDx=0;entryDy=0;" edge="1" parent="1" source="xv_gtzmwuyqn3bFnvwPB-23" target="xv_gtzmwuyqn3bFnvwPB-24">
          <mxGeometry width="50" height="50" relative="1" as="geometry">
            <mxPoint x="450" y="610" as="sourcePoint" />
            <mxPoint x="500" y="560" as="targetPoint" />
          </mxGeometry>
        </mxCell>
        <mxCell id="xv_gtzmwuyqn3bFnvwPB-58" value="" style="endArrow=none;html=1;rounded=0;entryX=0;entryY=0;entryDx=0;entryDy=0;exitX=0.5;exitY=1;exitDx=0;exitDy=0;" edge="1" parent="1" source="xv_gtzmwuyqn3bFnvwPB-46" target="xv_gtzmwuyqn3bFnvwPB-35">
          <mxGeometry width="50" height="50" relative="1" as="geometry">
            <mxPoint x="460" y="570" as="sourcePoint" />
            <mxPoint x="510" y="520" as="targetPoint" />
          </mxGeometry>
        </mxCell>
        <mxCell id="xv_gtzmwuyqn3bFnvwPB-59" value="" style="endArrow=none;html=1;rounded=0;entryX=0;entryY=1;entryDx=0;entryDy=0;exitX=0.5;exitY=0;exitDx=0;exitDy=0;" edge="1" parent="1" source="xv_gtzmwuyqn3bFnvwPB-50" target="xv_gtzmwuyqn3bFnvwPB-35">
          <mxGeometry width="50" height="50" relative="1" as="geometry">
            <mxPoint x="470" y="580" as="sourcePoint" />
            <mxPoint x="520" y="530" as="targetPoint" />
          </mxGeometry>
        </mxCell>
        <mxCell id="xv_gtzmwuyqn3bFnvwPB-60" value="" style="endArrow=none;html=1;rounded=0;entryX=0.583;entryY=0;entryDx=0;entryDy=0;entryPerimeter=0;exitX=0.5;exitY=1;exitDx=0;exitDy=0;" edge="1" parent="1" source="xv_gtzmwuyqn3bFnvwPB-47" target="xv_gtzmwuyqn3bFnvwPB-35">
          <mxGeometry width="50" height="50" relative="1" as="geometry">
            <mxPoint x="480" y="590" as="sourcePoint" />
            <mxPoint x="530" y="540" as="targetPoint" />
          </mxGeometry>
        </mxCell>
        <mxCell id="xv_gtzmwuyqn3bFnvwPB-61" value="" style="endArrow=none;html=1;rounded=0;exitX=0.5;exitY=0;exitDx=0;exitDy=0;" edge="1" parent="1" source="xv_gtzmwuyqn3bFnvwPB-52">
          <mxGeometry width="50" height="50" relative="1" as="geometry">
            <mxPoint x="720" y="370" as="sourcePoint" />
            <mxPoint x="720" y="470" as="targetPoint" />
          </mxGeometry>
        </mxCell>
        <mxCell id="xv_gtzmwuyqn3bFnvwPB-62" value="" style="endArrow=none;html=1;rounded=0;entryX=1;entryY=0;entryDx=0;entryDy=0;exitX=0.5;exitY=1;exitDx=0;exitDy=0;" edge="1" parent="1" source="xv_gtzmwuyqn3bFnvwPB-48" target="xv_gtzmwuyqn3bFnvwPB-35">
          <mxGeometry width="50" height="50" relative="1" as="geometry">
            <mxPoint x="730" y="380" as="sourcePoint" />
            <mxPoint x="729.96" y="430" as="targetPoint" />
          </mxGeometry>
        </mxCell>
        <mxCell id="xv_gtzmwuyqn3bFnvwPB-63" value="" style="endArrow=none;html=1;rounded=0;entryX=1;entryY=0.25;entryDx=0;entryDy=0;exitX=0;exitY=0.5;exitDx=0;exitDy=0;" edge="1" parent="1" source="xv_gtzmwuyqn3bFnvwPB-49" target="xv_gtzmwuyqn3bFnvwPB-35">
          <mxGeometry width="50" height="50" relative="1" as="geometry">
            <mxPoint x="740" y="390" as="sourcePoint" />
            <mxPoint x="739.96" y="440" as="targetPoint" />
          </mxGeometry>
        </mxCell>
        <mxCell id="xv_gtzmwuyqn3bFnvwPB-64" value="" style="endArrow=none;html=1;rounded=0;entryX=1;entryY=0.75;entryDx=0;entryDy=0;exitX=0;exitY=0.5;exitDx=0;exitDy=0;" edge="1" parent="1" source="xv_gtzmwuyqn3bFnvwPB-53" target="xv_gtzmwuyqn3bFnvwPB-35">
          <mxGeometry width="50" height="50" relative="1" as="geometry">
            <mxPoint x="750" y="400" as="sourcePoint" />
            <mxPoint x="749.96" y="450" as="targetPoint" />
          </mxGeometry>
        </mxCell>
        <mxCell id="xv_gtzmwuyqn3bFnvwPB-65" value="" style="endArrow=none;html=1;rounded=0;entryX=1;entryY=1;entryDx=0;entryDy=0;exitX=0.5;exitY=0;exitDx=0;exitDy=0;" edge="1" parent="1" source="xv_gtzmwuyqn3bFnvwPB-51" target="xv_gtzmwuyqn3bFnvwPB-35">
          <mxGeometry width="50" height="50" relative="1" as="geometry">
            <mxPoint x="760" y="410" as="sourcePoint" />
            <mxPoint x="759.96" y="460" as="targetPoint" />
          </mxGeometry>
        </mxCell>
        <mxCell id="xv_gtzmwuyqn3bFnvwPB-66" value="" style="endArrow=none;html=1;rounded=0;entryX=0.5;entryY=1;entryDx=0;entryDy=0;exitX=0;exitY=0;exitDx=0;exitDy=0;" edge="1" parent="1" source="xv_gtzmwuyqn3bFnvwPB-34" target="xv_gtzmwuyqn3bFnvwPB-36">
          <mxGeometry width="50" height="50" relative="1" as="geometry">
            <mxPoint x="570" y="180" as="sourcePoint" />
            <mxPoint x="620" y="130" as="targetPoint" />
          </mxGeometry>
        </mxCell>
        <mxCell id="xv_gtzmwuyqn3bFnvwPB-68" value="" style="endArrow=none;html=1;rounded=0;entryX=0.5;entryY=0;entryDx=0;entryDy=0;exitX=0;exitY=1;exitDx=0;exitDy=0;" edge="1" parent="1" source="xv_gtzmwuyqn3bFnvwPB-34" target="xv_gtzmwuyqn3bFnvwPB-39">
          <mxGeometry width="50" height="50" relative="1" as="geometry">
            <mxPoint x="650" y="130" as="sourcePoint" />
            <mxPoint x="600" y="110" as="targetPoint" />
          </mxGeometry>
        </mxCell>
        <mxCell id="xv_gtzmwuyqn3bFnvwPB-69" value="" style="endArrow=none;html=1;rounded=0;entryX=0.5;entryY=1;entryDx=0;entryDy=0;exitX=0.5;exitY=0;exitDx=0;exitDy=0;" edge="1" parent="1" source="xv_gtzmwuyqn3bFnvwPB-34" target="xv_gtzmwuyqn3bFnvwPB-37">
          <mxGeometry width="50" height="50" relative="1" as="geometry">
            <mxPoint x="660" y="140" as="sourcePoint" />
            <mxPoint x="610" y="120" as="targetPoint" />
          </mxGeometry>
        </mxCell>
        <mxCell id="xv_gtzmwuyqn3bFnvwPB-70" value="" style="endArrow=none;html=1;rounded=0;entryX=0.5;entryY=0;entryDx=0;entryDy=0;" edge="1" parent="1" target="xv_gtzmwuyqn3bFnvwPB-43">
          <mxGeometry width="50" height="50" relative="1" as="geometry">
            <mxPoint x="710" y="180" as="sourcePoint" />
            <mxPoint x="620" y="130" as="targetPoint" />
          </mxGeometry>
        </mxCell>
        <mxCell id="xv_gtzmwuyqn3bFnvwPB-71" value="" style="endArrow=none;html=1;rounded=0;entryX=0.5;entryY=1;entryDx=0;entryDy=0;exitX=1;exitY=0;exitDx=0;exitDy=0;" edge="1" parent="1" source="xv_gtzmwuyqn3bFnvwPB-34" target="xv_gtzmwuyqn3bFnvwPB-38">
          <mxGeometry width="50" height="50" relative="1" as="geometry">
            <mxPoint x="720" y="190" as="sourcePoint" />
            <mxPoint x="720" y="230" as="targetPoint" />
          </mxGeometry>
        </mxCell>
        <mxCell id="xv_gtzmwuyqn3bFnvwPB-72" value="" style="endArrow=none;html=1;rounded=0;entryX=0;entryY=0.5;entryDx=0;entryDy=0;exitX=1;exitY=0.25;exitDx=0;exitDy=0;" edge="1" parent="1" source="xv_gtzmwuyqn3bFnvwPB-34" target="xv_gtzmwuyqn3bFnvwPB-44">
          <mxGeometry width="50" height="50" relative="1" as="geometry">
            <mxPoint x="730" y="200" as="sourcePoint" />
            <mxPoint x="730" y="240" as="targetPoint" />
          </mxGeometry>
        </mxCell>
        <mxCell id="xv_gtzmwuyqn3bFnvwPB-73" value="" style="endArrow=none;html=1;rounded=0;entryX=1;entryY=1;entryDx=0;entryDy=0;exitX=0.5;exitY=0;exitDx=0;exitDy=0;" edge="1" parent="1" source="xv_gtzmwuyqn3bFnvwPB-40" target="xv_gtzmwuyqn3bFnvwPB-34">
          <mxGeometry width="50" height="50" relative="1" as="geometry">
            <mxPoint x="740" y="210" as="sourcePoint" />
            <mxPoint x="740" y="250" as="targetPoint" />
          </mxGeometry>
        </mxCell>
        <mxCell id="xv_gtzmwuyqn3bFnvwPB-74" value="" style="endArrow=none;html=1;rounded=0;entryX=0;entryY=0.5;entryDx=0;entryDy=0;exitX=1;exitY=0.75;exitDx=0;exitDy=0;" edge="1" parent="1" source="xv_gtzmwuyqn3bFnvwPB-34" target="xv_gtzmwuyqn3bFnvwPB-45">
          <mxGeometry width="50" height="50" relative="1" as="geometry">
            <mxPoint x="750" y="220" as="sourcePoint" />
            <mxPoint x="750" y="260" as="targetPoint" />
          </mxGeometry>
        </mxCell>
        <mxCell id="xv_gtzmwuyqn3bFnvwPB-75" value="" style="endArrow=none;html=1;rounded=0;exitX=1;exitY=1;exitDx=0;exitDy=0;entryX=0;entryY=0;entryDx=0;entryDy=0;" edge="1" parent="1" source="xv_gtzmwuyqn3bFnvwPB-25" target="xv_gtzmwuyqn3bFnvwPB-24">
          <mxGeometry width="50" height="50" relative="1" as="geometry">
            <mxPoint x="450" y="820" as="sourcePoint" />
            <mxPoint x="500" y="770" as="targetPoint" />
          </mxGeometry>
        </mxCell>
        <mxCell id="xv_gtzmwuyqn3bFnvwPB-76" value="" style="endArrow=none;html=1;rounded=0;exitX=0.987;exitY=0.398;exitDx=0;exitDy=0;entryX=0;entryY=1;entryDx=0;entryDy=0;exitPerimeter=0;" edge="1" parent="1" source="xv_gtzmwuyqn3bFnvwPB-26" target="xv_gtzmwuyqn3bFnvwPB-24">
          <mxGeometry width="50" height="50" relative="1" as="geometry">
            <mxPoint x="615.4688384655983" y="671.1448844698757" as="sourcePoint" />
            <mxPoint x="650" y="680" as="targetPoint" />
          </mxGeometry>
        </mxCell>
        <mxCell id="xv_gtzmwuyqn3bFnvwPB-77" value="" style="endArrow=none;html=1;rounded=0;exitX=0.5;exitY=1;exitDx=0;exitDy=0;entryX=0.5;entryY=0;entryDx=0;entryDy=0;" edge="1" parent="1" source="xv_gtzmwuyqn3bFnvwPB-27" target="xv_gtzmwuyqn3bFnvwPB-24">
          <mxGeometry width="50" height="50" relative="1" as="geometry">
            <mxPoint x="625.4688384655983" y="681.1448844698757" as="sourcePoint" />
            <mxPoint x="660" y="690" as="targetPoint" />
          </mxGeometry>
        </mxCell>
        <mxCell id="xv_gtzmwuyqn3bFnvwPB-78" value="" style="endArrow=none;html=1;rounded=0;exitX=0.5;exitY=0;exitDx=0;exitDy=0;entryX=0.5;entryY=1;entryDx=0;entryDy=0;" edge="1" parent="1" source="xv_gtzmwuyqn3bFnvwPB-28" target="xv_gtzmwuyqn3bFnvwPB-24">
          <mxGeometry width="50" height="50" relative="1" as="geometry">
            <mxPoint x="635.4688384655983" y="691.1448844698757" as="sourcePoint" />
            <mxPoint x="670" y="700" as="targetPoint" />
          </mxGeometry>
        </mxCell>
        <mxCell id="xv_gtzmwuyqn3bFnvwPB-80" value="" style="endArrow=none;html=1;rounded=0;exitX=1;exitY=0.5;exitDx=0;exitDy=0;entryX=0;entryY=0.5;entryDx=0;entryDy=0;" edge="1" parent="1" source="xv_gtzmwuyqn3bFnvwPB-24" target="xv_gtzmwuyqn3bFnvwPB-29">
          <mxGeometry width="50" height="50" relative="1" as="geometry">
            <mxPoint x="645.4688384655983" y="701.1448844698757" as="sourcePoint" />
            <mxPoint x="680" y="710" as="targetPoint" />
          </mxGeometry>
        </mxCell>
        <mxCell id="xv_gtzmwuyqn3bFnvwPB-81" value="" style="endArrow=none;html=1;rounded=0;exitX=1;exitY=0.5;exitDx=0;exitDy=0;entryX=0;entryY=1;entryDx=0;entryDy=0;" edge="1" parent="1" source="xv_gtzmwuyqn3bFnvwPB-20" target="xv_gtzmwuyqn3bFnvwPB-18">
          <mxGeometry width="50" height="50" relative="1" as="geometry">
            <mxPoint x="170" y="830" as="sourcePoint" />
            <mxPoint x="220" y="780" as="targetPoint" />
          </mxGeometry>
        </mxCell>
        <mxCell id="xv_gtzmwuyqn3bFnvwPB-82" value="" style="endArrow=none;html=1;rounded=0;exitX=1;exitY=0.5;exitDx=0;exitDy=0;entryX=0;entryY=0;entryDx=0;entryDy=0;" edge="1" parent="1" source="xv_gtzmwuyqn3bFnvwPB-19" target="xv_gtzmwuyqn3bFnvwPB-18">
          <mxGeometry width="50" height="50" relative="1" as="geometry">
            <mxPoint x="655.4688384655983" y="711.1448844698757" as="sourcePoint" />
            <mxPoint x="690" y="720" as="targetPoint" />
          </mxGeometry>
        </mxCell>
        <mxCell id="xv_gtzmwuyqn3bFnvwPB-83" value="" style="endArrow=none;html=1;rounded=0;exitX=0;exitY=0.5;exitDx=0;exitDy=0;entryX=1;entryY=0;entryDx=0;entryDy=0;" edge="1" parent="1" source="xv_gtzmwuyqn3bFnvwPB-21" target="xv_gtzmwuyqn3bFnvwPB-18">
          <mxGeometry width="50" height="50" relative="1" as="geometry">
            <mxPoint x="129.99999999999875" y="650" as="sourcePoint" />
            <mxPoint x="170.0000000000001" y="680" as="targetPoint" />
          </mxGeometry>
        </mxCell>
        <mxCell id="xv_gtzmwuyqn3bFnvwPB-84" value="" style="endArrow=none;html=1;rounded=0;exitX=0;exitY=0.5;exitDx=0;exitDy=0;entryX=1;entryY=1;entryDx=0;entryDy=0;" edge="1" parent="1" source="xv_gtzmwuyqn3bFnvwPB-22" target="xv_gtzmwuyqn3bFnvwPB-18">
          <mxGeometry width="50" height="50" relative="1" as="geometry">
            <mxPoint x="330" y="650" as="sourcePoint" />
            <mxPoint x="290" y="680" as="targetPoint" />
          </mxGeometry>
        </mxCell>
        <mxCell id="xv_gtzmwuyqn3bFnvwPB-85" value="" style="endArrow=none;html=1;rounded=0;exitX=0.5;exitY=0;exitDx=0;exitDy=0;entryX=0.5;entryY=1;entryDx=0;entryDy=0;" edge="1" parent="1" source="xv_gtzmwuyqn3bFnvwPB-18" target="xv_gtzmwuyqn3bFnvwPB-17">
          <mxGeometry width="50" height="50" relative="1" as="geometry">
            <mxPoint x="300" y="600" as="sourcePoint" />
            <mxPoint x="350" y="550" as="targetPoint" />
          </mxGeometry>
        </mxCell>
        <mxCell id="xv_gtzmwuyqn3bFnvwPB-86" value="" style="endArrow=none;html=1;rounded=0;exitX=0.5;exitY=0;exitDx=0;exitDy=0;" edge="1" parent="1" source="xv_gtzmwuyqn3bFnvwPB-17">
          <mxGeometry width="50" height="50" relative="1" as="geometry">
            <mxPoint x="230" y="680" as="sourcePoint" />
            <mxPoint x="220" y="470" as="targetPoint" />
          </mxGeometry>
        </mxCell>
        <mxCell id="xv_gtzmwuyqn3bFnvwPB-87" value="" style="endArrow=none;html=1;rounded=0;entryX=0.5;entryY=1;entryDx=0;entryDy=0;" edge="1" parent="1" target="xv_gtzmwuyqn3bFnvwPB-9">
          <mxGeometry width="50" height="50" relative="1" as="geometry">
            <mxPoint x="220" y="410" as="sourcePoint" />
            <mxPoint x="210" y="340" as="targetPoint" />
          </mxGeometry>
        </mxCell>
        <mxCell id="xv_gtzmwuyqn3bFnvwPB-88" value="" style="endArrow=none;html=1;rounded=0;exitX=1;exitY=1;exitDx=0;exitDy=0;entryX=0.25;entryY=0;entryDx=0;entryDy=0;" edge="1" parent="1" source="xv_gtzmwuyqn3bFnvwPB-15" target="xv_gtzmwuyqn3bFnvwPB-10">
          <mxGeometry width="50" height="50" relative="1" as="geometry">
            <mxPoint x="160" y="400" as="sourcePoint" />
            <mxPoint x="210" y="350" as="targetPoint" />
          </mxGeometry>
        </mxCell>
        <mxCell id="xv_gtzmwuyqn3bFnvwPB-89" value="" style="endArrow=none;html=1;rounded=0;exitX=1;exitY=0.5;exitDx=0;exitDy=0;entryX=0;entryY=0.25;entryDx=0;entryDy=0;" edge="1" parent="1" source="xv_gtzmwuyqn3bFnvwPB-12" target="xv_gtzmwuyqn3bFnvwPB-10">
          <mxGeometry width="50" height="50" relative="1" as="geometry">
            <mxPoint x="90" y="480" as="sourcePoint" />
            <mxPoint x="140" y="430" as="targetPoint" />
          </mxGeometry>
        </mxCell>
        <mxCell id="xv_gtzmwuyqn3bFnvwPB-90" value="" style="endArrow=none;html=1;rounded=0;exitX=1;exitY=0.5;exitDx=0;exitDy=0;entryX=0;entryY=0.75;entryDx=0;entryDy=0;" edge="1" parent="1" source="xv_gtzmwuyqn3bFnvwPB-11" target="xv_gtzmwuyqn3bFnvwPB-10">
          <mxGeometry width="50" height="50" relative="1" as="geometry">
            <mxPoint x="160" y="530" as="sourcePoint" />
            <mxPoint x="210" y="480" as="targetPoint" />
          </mxGeometry>
        </mxCell>
        <mxCell id="xv_gtzmwuyqn3bFnvwPB-91" value="" style="endArrow=none;html=1;rounded=0;exitX=1;exitY=0.5;exitDx=0;exitDy=0;entryX=0.25;entryY=1;entryDx=0;entryDy=0;" edge="1" parent="1" source="xv_gtzmwuyqn3bFnvwPB-14" target="xv_gtzmwuyqn3bFnvwPB-10">
          <mxGeometry width="50" height="50" relative="1" as="geometry">
            <mxPoint x="110" y="490" as="sourcePoint" />
            <mxPoint x="167.5000000000001" y="465" as="targetPoint" />
          </mxGeometry>
        </mxCell>
        <mxCell id="xv_gtzmwuyqn3bFnvwPB-92" value="" style="endArrow=none;html=1;rounded=0;exitX=1;exitY=0.25;exitDx=0;exitDy=0;entryX=0;entryY=0.5;entryDx=0;entryDy=0;" edge="1" parent="1" source="xv_gtzmwuyqn3bFnvwPB-10" target="xv_gtzmwuyqn3bFnvwPB-16">
          <mxGeometry width="50" height="50" relative="1" as="geometry">
            <mxPoint x="250" y="370" as="sourcePoint" />
            <mxPoint x="300" y="320" as="targetPoint" />
          </mxGeometry>
        </mxCell>
        <mxCell id="xv_gtzmwuyqn3bFnvwPB-93" value="" style="endArrow=none;html=1;rounded=0;exitX=1;exitY=0.75;exitDx=0;exitDy=0;entryX=0;entryY=0.5;entryDx=0;entryDy=0;" edge="1" parent="1" source="xv_gtzmwuyqn3bFnvwPB-10" target="xv_gtzmwuyqn3bFnvwPB-13">
          <mxGeometry width="50" height="50" relative="1" as="geometry">
            <mxPoint x="287.5" y="435" as="sourcePoint" />
            <mxPoint x="350" y="390" as="targetPoint" />
          </mxGeometry>
        </mxCell>
        <mxCell id="xv_gtzmwuyqn3bFnvwPB-94" value="" style="endArrow=none;html=1;rounded=0;exitX=1;exitY=0.5;exitDx=0;exitDy=0;" edge="1" parent="1" source="xv_gtzmwuyqn3bFnvwPB-3" target="xv_gtzmwuyqn3bFnvwPB-1">
          <mxGeometry width="50" height="50" relative="1" as="geometry">
            <mxPoint x="180" y="150" as="sourcePoint" />
            <mxPoint x="230" y="100" as="targetPoint" />
          </mxGeometry>
        </mxCell>
        <mxCell id="xv_gtzmwuyqn3bFnvwPB-95" value="" style="endArrow=none;html=1;rounded=0;exitX=0;exitY=0;exitDx=0;exitDy=0;entryX=1;entryY=1;entryDx=0;entryDy=0;" edge="1" parent="1" source="xv_gtzmwuyqn3bFnvwPB-1" target="xv_gtzmwuyqn3bFnvwPB-2">
          <mxGeometry width="50" height="50" relative="1" as="geometry">
            <mxPoint x="190" y="150" as="sourcePoint" />
            <mxPoint x="240" y="100" as="targetPoint" />
          </mxGeometry>
        </mxCell>
        <mxCell id="xv_gtzmwuyqn3bFnvwPB-96" value="" style="endArrow=none;html=1;rounded=0;exitX=1;exitY=0;exitDx=0;exitDy=0;entryX=0;entryY=1;entryDx=0;entryDy=0;" edge="1" parent="1" source="xv_gtzmwuyqn3bFnvwPB-7" target="xv_gtzmwuyqn3bFnvwPB-1">
          <mxGeometry width="50" height="50" relative="1" as="geometry">
            <mxPoint x="170" y="240" as="sourcePoint" />
            <mxPoint x="220" y="190" as="targetPoint" />
          </mxGeometry>
        </mxCell>
        <mxCell id="xv_gtzmwuyqn3bFnvwPB-97" value="" style="endArrow=none;html=1;rounded=0;exitX=0.5;exitY=1;exitDx=0;exitDy=0;entryX=0.5;entryY=0;entryDx=0;entryDy=0;" edge="1" parent="1" source="xv_gtzmwuyqn3bFnvwPB-4" target="xv_gtzmwuyqn3bFnvwPB-1">
          <mxGeometry width="50" height="50" relative="1" as="geometry">
            <mxPoint x="190" y="160" as="sourcePoint" />
            <mxPoint x="240" y="110" as="targetPoint" />
          </mxGeometry>
        </mxCell>
        <mxCell id="xv_gtzmwuyqn3bFnvwPB-98" value="" style="endArrow=none;html=1;rounded=0;exitX=0;exitY=1;exitDx=0;exitDy=0;entryX=1;entryY=0;entryDx=0;entryDy=0;" edge="1" parent="1" source="xv_gtzmwuyqn3bFnvwPB-5" target="xv_gtzmwuyqn3bFnvwPB-1">
          <mxGeometry width="50" height="50" relative="1" as="geometry">
            <mxPoint x="230" y="80" as="sourcePoint" />
            <mxPoint x="230" y="130" as="targetPoint" />
          </mxGeometry>
        </mxCell>
        <mxCell id="xv_gtzmwuyqn3bFnvwPB-99" value="" style="endArrow=none;html=1;rounded=0;exitX=0;exitY=0.5;exitDx=0;exitDy=0;entryX=1;entryY=0.5;entryDx=0;entryDy=0;" edge="1" parent="1" source="xv_gtzmwuyqn3bFnvwPB-6" target="xv_gtzmwuyqn3bFnvwPB-1">
          <mxGeometry width="50" height="50" relative="1" as="geometry">
            <mxPoint x="314.5311615344051" y="101.14488446987389" as="sourcePoint" />
            <mxPoint x="290" y="130" as="targetPoint" />
          </mxGeometry>
        </mxCell>
        <mxCell id="xv_gtzmwuyqn3bFnvwPB-100" value="" style="endArrow=none;html=1;rounded=0;exitX=0;exitY=0;exitDx=0;exitDy=0;entryX=1;entryY=1;entryDx=0;entryDy=0;" edge="1" parent="1" source="xv_gtzmwuyqn3bFnvwPB-8" target="xv_gtzmwuyqn3bFnvwPB-1">
          <mxGeometry width="50" height="50" relative="1" as="geometry">
            <mxPoint x="330" y="160" as="sourcePoint" />
            <mxPoint x="290" y="160" as="targetPoint" />
          </mxGeometry>
        </mxCell>
        <mxCell id="xv_gtzmwuyqn3bFnvwPB-101" value="" style="endArrow=none;html=1;rounded=0;exitX=0.5;exitY=0;exitDx=0;exitDy=0;entryX=0.5;entryY=1;entryDx=0;entryDy=0;" edge="1" parent="1" source="xv_gtzmwuyqn3bFnvwPB-9" target="xv_gtzmwuyqn3bFnvwPB-1">
          <mxGeometry width="50" height="50" relative="1" as="geometry">
            <mxPoint x="180" y="210" as="sourcePoint" />
            <mxPoint x="230" y="160" as="targetPoint" />
          </mxGeometry>
        </mxCell>
      </root>
    </mxGraphModel>
  </diagram>
</mxfile>
